<?xml version="1.0" encoding="iso-8859-1"?>
<!-- Uploaded to: SVG Repo, www.svgrepo.com, Generator: SVG Repo Mixer Tools -->
<svg fill="#000000" height="800px" width="800px" version="1.1" id="Layer_1" xmlns="http://www.w3.org/2000/svg" xmlns:xlink="http://www.w3.org/1999/xlink" 
	 viewBox="0 0 512 512" xml:space="preserve">
<g>
	<g>
		<path d="M490.667,309.333h-4.192l-10.581-47.986c-3.697-18.921-19.913-32.937-39.514-36.47L292.418,80.915
			C278.979,67.476,256,76.994,256,96v85.333c0,11.782,9.551,21.333,21.333,21.333c11.782,0,21.333-9.551,21.333-21.333v-33.83
			l91.202,91.202c-6.276,6.204-10.763,14.094-12.533,23.139l-10.476,47.489h-25.526v-42.667c0-11.782-9.551-21.333-21.333-21.333
			h-85.333c-11.782,0-21.333,9.551-21.333,21.333v42.667h-64v-128V96c0-11.782-9.551-21.333-21.333-21.333h-21.333V32
			c0-11.782-9.551-21.333-21.333-21.333C73.551,10.667,64,20.218,64,32v42.667H42.667c-11.782,0-21.333,9.551-21.333,21.333v85.333
			v128C9.551,309.333,0,318.885,0,330.667v106.389c0,35.505,28.773,64.277,64.277,64.277h362.389
			c10.431,0,19.332-7.543,21.044-17.832c3.95-23.743,11.329-40.649,23.886-53.099c1.601-1.585,10.37-9.123,11.886-10.205
			C501.395,407.386,512,393.092,512,373.333v-42.667C512,318.885,502.449,309.333,490.667,309.333z M419.105,270.535
			c0.359-1.806,3.199-3.868,7.562-3.868c4.351,0,7.204,2.071,7.458,3.372l8.661,39.295H410.55L419.105,270.535z M256,288h42.667
			v21.333H256V288z M64,117.333h42.667V160H64V117.333z M64,202.667h42.667v106.667H64V202.667z M469.333,373.333
			c0,2.735-2.833,6.553-10.661,12.152c-3.485,2.489-13.96,11.493-17.107,14.609c-15.901,15.766-26.065,35.029-32.187,58.572H64.277
			c-11.941,0-21.611-9.67-21.611-21.611V352H128h106.667H320h64h85.333V373.333z"/>
	</g>
</g>
</svg>